<?xml version="1.0" encoding="utf-8"?>
<!-- Generator: Adobe Illustrator 24.3.0, SVG Export Plug-In . SVG Version: 6.00 Build 0)  -->
<svg version="1.1" id="Layer_1" xmlns="http://www.w3.org/2000/svg" xmlns:xlink="http://www.w3.org/1999/xlink" x="0px" y="0px"
	 viewBox="0 0 1890.9 1909" style="enable-background:new 0 0 1890.9 1909;" xml:space="preserve">
<style type="text/css">
	.st0{fill:#9D9860;}
	.st1{fill:#7ECB42;}
	.st2{fill:#3E4196;}
	.st3{fill:#FCEE2A;}
	.st4{fill:#00A859;}
</style>
<image style="overflow:visible;" width="2835" height="2835" xlink:href="ون ستوب1.png"  transform="matrix(0.573 0 0 0.573 -1961.8953 142.2522)">
</image>
<g>
	<g>
		<g>
			<path class="st0" d="M1069.4,1069.1l-1.7-1c5.3-9.5,10.6-19.2,15.7-28.9c0.3-0.5,0.5-0.9,0.7-1.1c0.2-0.3,0.3-0.5,0.3-0.6
				c0.4-1.6,1.2-3.1,2.2-4.5c0.6-0.7,0.9-1.5,1.3-2.4c0.3-0.6,0.6-1.4,1-2.2c1.5-2.6,5.6-10.3,12.3-22.8c0,0,0-0.1,1.5-2.5
				c0.4-0.6,0.6-1.3,0.9-1.9c0.2-0.6,0.5-1.1,0.8-1.7c7.1-12.9,12.9-23.6,17.1-31.9l1.8,0.9c-4.3,8.3-10,19-17.2,31.9
				c-0.2,0.4-0.5,0.9-0.7,1.5c-0.3,0.7-0.6,1.5-1.1,2.2c-0.9,1.5-1.4,2.3-1.5,2.4c-6.7,12.5-10.8,20.2-12.3,22.8
				c-0.4,0.7-0.7,1.4-1,2c-0.4,1-0.8,1.9-1.6,2.8c-0.9,1.1-1.5,2.4-1.9,3.7c-0.1,0.4-0.3,0.8-0.7,1.3c0,0.1-0.2,0.2-0.5,0.8
				C1080,1049.9,1074.7,1059.6,1069.4,1069.1z M1123.4,968.7l-1.8-1l90.6-167.7l1.8,1L1123.4,968.7z"/>
		</g>
		<g>
			
				<rect x="1063.5" y="1013.4" transform="matrix(0.4728 -0.8812 0.8812 0.4728 -262.6857 1589.8284)" class="st0" width="267.6" height="2"/>
		</g>
		<g>
			<path class="st1" d="M1093.1,1211.1l-0.6-0.1c-0.4,0-0.8-0.2-1.2-0.5l-65.5-63l1.4-1.4l65.5,63l0.6,0L1093.1,1211.1z"/>
		</g>
	</g>
	<g>
		<path class="st2" d="M1213,800.6l-90.6,167.7 M1122.4,968.4c-4.3,8.3-10,18.9-17.1,31.9c-0.6,1.1-1,2.5-1.7,3.6
			c-1,1.6-1.5,2.4-1.5,2.4c-6.7,12.5-10.8,20.1-12.3,22.8c-1,1.8-1.4,3.3-2.4,4.7c-1,1.2-1.7,2.6-2.1,4.1c-0.1,0.3-0.2,0.6-0.5,0.9
			c-0.1,0.2-0.3,0.5-0.6,0.9c-5.2,9.7-10.4,19.3-15.7,28.9l-238-232c-0.3-0.3-0.8-0.3-1.2,0c-211.3,203.9-414.4,399.8-609.2,587.9
			c-1.1,1.1-2.4,1.6-3.8,1.6c-28.2-0.5-56.5-0.7-85-0.4c-0.3,0-0.5-0.2-0.5-0.5c0-0.1,0-0.2,0.1-0.2c0.9-1.6,1.8-3.3,2.7-5.1
			c4.9-10.1,21.8-44.3,50.7-102.5c1.6-3.2,3.2-6.4,4.8-9.6c10.7-21.6,17.4-35.1,20.1-40.7c3.1-6.3,6-12.3,8.9-17.9
			c6.6-13,12.9-25.7,19-38.1c66.2-134,102.6-207.5,109.2-220.5c7.7-15.2,15.2-30.5,22.7-45.8c4.9-10,21.8-44,50.6-101.8
			c0.4-0.7,1.5-2.9,3.3-6.6c18-36.2,28.8-57.8,32.3-64.9c11.1-22.2,22.3-44.9,33.7-67.9c23.5-47.6,49.5-99.8,77.8-156.8
			c1.8-3.6,3.3-6.7,4.7-9.4c10.5-21.1,33-66.1,67.6-135.1c27.7-55.2,54-107,78.9-155.5c33.9-65.9,71.2-137.2,111.9-213.8
			c0.1-0.1,0.1-0.1,0.2,0c24.1,49.8,44.7,91.6,61.6,125.6c12.5,24.9,35.6,71.3,69.3,139c3.6,7.3,7.8,15.1,12.4,24.3
			c28.1,56.1,56,111.7,83.7,166.6c17.2,34.2,66.6,132.9,148,295.9c2,4,5.1,11,8.2,16.3L1122.4,968.4z"/>
	</g>
	<g>
		<g>
			<path class="st3" d="M1575.7,1290.1c24.3,41.4,50.3,85.7,77.9,132.6c0.2,0.3,0.5,0.5,0.9,0.5l105.5-1v-1.3L1575.7,1290.1z"/>
		</g>
		<g>
			<path class="st3" d="M1298.2,641.9L1213,800.6l-90.6,167.7l72.1,51.2l66-122.9l39.8-74.3c0.1-0.1,0.1-0.2,0.3-0.2
				c0.3-0.1,0.5,0,0.6,0.3c0.4,1,0.9,2.1,1.5,3.2c0.1,0.3,91.1,155.2,272.9,464.6L1760,1421l-461.4-779.1
				C1298.5,641.6,1298.3,641.6,1298.2,641.9z"/>
		</g>
		<g>
			<path class="st3" d="M1105.3,1000.3c-0.6,1.1-1,2.5-1.7,3.6c-1,1.6-1.5,2.4-1.5,2.4c-6.7,12.5-10.8,20.2-12.3,22.8
				c-1,1.8-1.4,3.3-2.4,4.7c-1,1.2-1.7,2.6-2.1,4.1c-0.1,0.3-0.2,0.6-0.5,0.9c-0.1,0.2-0.3,0.5-0.6,0.9
				c-5.2,9.7-10.4,19.3-15.7,28.9l-41.9,78.2l65.5,63c0.1,0.1,0.3,0.2,0.5,0.2l0.6,0.1c-0.3-0.8-0.2-1.6,0.2-2.5
				c13.5-25.1,27-50.2,40.6-75.3l60.5-112.8l-72.1-51.2C1118.2,976.6,1112.4,987.3,1105.3,1000.3z"/>
		</g>
	</g>
	<g>
		<path class="st2" d="M1260.6,896.6l262.3,528.5c0.2,0.3,0.1,0.5-0.3,0.5c-24.9,0-50.8,0.1-77.9,0.2c-2.7,0-5.2-0.1-7.8-0.3
			c-3.4-0.2-7.4-5.1-11.1-8.7c-20.3-19.8-37.7-36.9-52.3-51.1c-100.2-97.6-150.9-146.9-152.1-148c-6-5.8-12.6-12.3-19.9-19.5
			c-0.1-0.1-1.2-1.2-3.3-3.3c-21.4-20.9-42.8-41.7-64.2-62.6L1260.6,896.6z"/>
	</g>
	<g>
		<path class="st4" d="M1026.6,1146.8l65.5,63c0.1,0.1,0.3,0.2,0.5,0.2l0.6,0.1l236.1,226.6c0.3,0.3,0.2,0.4-0.2,0.4
			c-33.6,0-53.1,0-58.6,0.1c-2.2,0-4-0.3-5.7-1.9c-5.2-4.7-8.8-8-10.7-9.9c-10.1-9.7-23-22.1-38.9-37.2
			c-87.5-83.2-219.3-208.6-395.5-376.2c-0.4-0.3-0.9-0.4-1.3,0l-451.1,425c-0.4,0.4-0.9,0.5-1.4,0.6l-61.3-0.4
			c-0.6,0-0.7-0.2-0.3-0.6c93.8-89.9,262-252.3,382.9-367c42.9-40.7,84.8-79.3,125.8-115.9c1.9-1.7,3.8-3.3,5.7-4.8
			c0.3-0.2,0.5-0.2,0.8,0c22.3,22.2,45.6,44.7,69.8,67.6c58.3,55.2,103.2,97.7,134.7,127.5
			C1024.9,1144.8,1025.8,1145.8,1026.6,1146.8z"/>
	</g>
	<g>
		<path class="st2" d="M817.8,1556.3c-98,0-177.4-90-177.4-201c0-111,79.4-201,177.4-201l0,0c98,0,177.4,90,177.4,201l0,0
			C995.2,1466.3,915.8,1556.3,817.8,1556.3z M817.8,1520.1c80.3,0,145.4-73.8,145.4-164.8l0,0c0-91-65.1-164.8-145.4-164.8
			c0,0,0,0,0,0c-80.3,0-145.4,73.8-145.4,164.8S737.5,1520.1,817.8,1520.1z"/>
	</g>
	<g>
		<path class="st2" d="M887,1290.8h-43.5c-0.2,0-0.4-0.2-0.4-0.4c0,0,0,0,0,0c0.2-7.3-0.2-14.5-1-21.4c-0.4-3-1.8-6.3-4.2-9.8
			c-5.2-7.6-16.3-8.3-24.9-6.8c-10.6,1.8-15.7,9.9-16.4,20.1c-0.2,3.3-0.3,7.2-0.1,11.7c0.5,13.4,7.9,25.4,16.9,35.2
			c10.2,11.1,19.7,18.7,33.2,30.3c16.2,14,30.5,31.2,37.4,51.5c1.8,5.3,2.9,11.4,3.4,18.3c0.8,11.4,0.5,23.3-2.4,34.1
			c-7.5,28-28.3,42.1-55.9,45.1c-10.4,1.1-20.4,0.8-30-1.1c-19.1-3.6-34.6-13.4-43.3-31.1c-1.8-3.7-3.5-8.3-5.1-14
			c-0.6-2-1.2-5.8-2-11.6c-0.5-3.6-0.7-7.5-0.7-11.6c0-10,0-16,0-17.8c0-0.2,0.2-0.4,0.4-0.4h43.1c0.4,0,0.7,0.3,0.7,0.7l0,0
			c-0.1,11.7-0.7,20.7,1.5,30.4c2.9,12.8,12.6,16.7,24.5,16.4c11.2-0.3,19.5-5.6,21.6-17.4c0.7-4,0.9-8.9,0.6-14.7
			c-0.3-5.4-1.3-10.1-3-14.2c-2.7-6.3-6.1-12-10.5-17.1c-10.3-12-18.2-18.1-34.3-32.1c-9.3-8.1-17.6-17-25.1-26.7
			c-8.3-10.8-14.5-24-16.7-37.7c-1.8-11.5-1.8-23,0-34.6c4.4-27.8,21.5-46.7,49.6-51.6c13.5-2.4,26.8-2.1,39.8,0.9
			c20.1,4.6,35.6,17.6,42.3,36.9c2.2,6.4,3.6,12,4.1,16.9c0.7,6.6,0.9,14.3,0.6,23.3C887.1,1290.8,887.1,1290.8,887,1290.8z"/>
	</g>
	<g>
		<path d="M393.8,1666.7c0,52.5-42.5,95-95,95h0c-52.5,0-95-42.5-95-95l0,0c0-52.5,42.5-95,95-95l0,0
			C351.3,1571.7,393.8,1614.2,393.8,1666.7L393.8,1666.7z M298.5,1722.7c30.8,0,55.8-25.1,55.8-56v0c0-30.9-25-56-55.8-56
			s-55.8,25.1-55.8,56C242.7,1697.6,267.7,1722.7,298.5,1722.7C298.5,1722.7,298.5,1722.7,298.5,1722.7z"/>
	</g>
	<g>
		<path d="M885.2,1615.4c-2.1,4.3-2.4,9.1-1,14.2c1.8,6.2,10.4,9.7,16.3,11.7c15.4,5.1,35.8,9.5,47.1,12.5
			c26,6.8,45.7,23.8,44.7,52.6c-0.6,16.9-7.4,30.4-20.2,40.6c-16.2,12.8-38.5,16.5-59.8,16c-38.5-0.9-74.3-21.4-74.1-64.6
			c0-0.2,0.1-0.3,0.3-0.3c0,0,0,0,0.1,0l37.9,6.2c0.4,0.1,0.6,0.3,0.7,0.7c2.5,11.7,8.9,19.5,19,23.3c15,5.6,52.4,6.6,56.7-15.3
			c3.8-19.1-19.2-25.2-33.2-28.6c-5.1-1.2-13.1-3.3-24.2-6.1c-14.6-3.8-29.7-9.5-40.2-20.6c-4.3-4.6-7.3-10-9-16.5
			c-4.2-16.4-1.6-31.1,7.5-43.9c10.4-14.6,30.3-22.9,48-24.8c38.8-4.1,84.5,10.8,84.4,57.8c0,0.3-0.2,0.4-0.5,0.4l-38.2-5.5
			c-0.3,0-0.5-0.2-0.5-0.5c-3-13.4-12.6-19.6-26-21C909.5,1602.3,891.4,1602.8,885.2,1615.4z"/>
	</g>
	<g>
		<path d="M1360.2,1666.7c0,52.5-42.5,95-95,95s-95-42.5-95-95c0-52.5,42.5-95,95-95l0,0C1317.7,1571.7,1360.2,1614.2,1360.2,1666.7
			L1360.2,1666.7z M1264.5,1722.7c30.8,0.2,56-24.7,56.2-55.6s-24.6-56.2-55.4-56.4c-30.8-0.2-56,24.7-56.2,55.6
			C1208.9,1697.2,1233.7,1722.5,1264.5,1722.7z"/>
	</g>
	<g>
		<path d="M540.9,1688v-112.3c0-0.2,0.2-0.4,0.4-0.4h33.2c0.3,0,0.4,0.1,0.4,0.4v182.8c0,0.3-0.2,0.5-0.5,0.5h-33
			c-0.4,0-0.8-0.2-1-0.5c-34.5-47-64.6-88.2-90.6-123.7c-0.4-0.6-0.7-0.9-0.7-1c-0.7-1.3-1.1-1.2-1.1,0.4l0,124.3
			c0,0.3-0.2,0.5-0.5,0.5h-34.2c-0.3,0-0.5-0.2-0.5-0.5l0,0v-182.7c0-0.3,0.2-0.5,0.5-0.5h45.1c0.4,0,0.9,0.2,1.1,0.6l80.4,112.4
			C540.6,1689,540.9,1688.9,540.9,1688z"/>
	</g>
	<g>
		<path d="M641.2,1649.9H724c0.2,0,0.4,0.2,0.4,0.4l0,0v34.9c0,0.2-0.2,0.4-0.4,0.4l0,0h-82.8c-0.2,0-0.4,0.2-0.4,0.4l0,0v38.7
			c0,0.2,0.2,0.4,0.4,0.4l0,0h102.6c0.2,0,0.4,0.2,0.4,0.4l0,0v33.2c0,0.2-0.2,0.4-0.4,0.4l0,0H602.1c-0.2,0-0.4-0.2-0.4-0.4l0,0
			v-183c0-0.2,0.2-0.4,0.4-0.4l0,0h133c0.2,0,0.4,0.2,0.4,0.4l0,0v33.2c0,0.2-0.2,0.4-0.4,0.4l0,0h-93.9c-0.2,0-0.4,0.2-0.4,0.4l0,0
			v40.1C640.8,1649.8,641,1649.9,641.2,1649.9L641.2,1649.9z"/>
	</g>
	<g>
		<path d="M1082.5,1575.8c45.1,0,70.8,0,77.3,0c0.5,0,0.8,0.3,0.8,0.8v32.5c0,0.3-0.2,0.5-0.5,0.5l0,0h-56.8c-0.4,0-0.7,0.2-0.7,0.7
			v148c0,0.3-0.2,0.5-0.5,0.5c-4.4,0.1-11,0.1-19.7,0.1c-8.7,0-15.2,0-19.7-0.1c-0.3,0-0.4-0.2-0.4-0.5l-0.1-148
			c0-0.4-0.2-0.7-0.7-0.7l-56.8,0c-0.3,0-0.5-0.2-0.5-0.5l0,0l0-32.5c0-0.5,0.3-0.8,0.8-0.8
			C1011.7,1575.8,1037.5,1575.8,1082.5,1575.8z"/>
	</g>
	<g>
		<path d="M1423.4,1693.7v64.8c0,0.2-0.2,0.4-0.4,0.4h-39.4c-0.3,0-0.5-0.2-0.5-0.5v-182.2c0-0.2,0.1-0.3,0.3-0.3
			c39.5,0,68,0,85.4,0.1c7.8,0,16.9,1.5,24.2,4.2c20.7,7.6,32.5,22.9,35.6,46.1c1.2,9.2,0.5,18.4-2.3,27.5
			c-8,26.9-31.7,39.2-58.5,39.2c-8,0-22.7,0.1-43.9,0.2C1423.6,1693.2,1423.4,1693.4,1423.4,1693.7z M1423.5,1607.9l-0.2,53
			c0,0.3,0.3,0.6,0.6,0.6c0,0,0,0,0,0l38.7,0.1c15,0.1,27.3-10.6,27.3-23.8l0-6.4c0-13.2-12.1-24-27.2-24c0,0,0,0,0,0l-38.7-0.1
			C1423.7,1607.3,1423.5,1607.5,1423.5,1607.9z"/>
	</g>
	<g>
		<path d="M319.4,1819.4c-3.1-3.7-9.7-4.9-14.1-4.6c-10.2,0.8-16.4,6.3-18.7,16.7c-3.2,14.5,3,29.1,18.4,32.6
			c7.9,1.8,15.5-0.1,22.2-4.9c0.7-0.5,1.3-0.4,1.8,0.3c0.6,0.9,0.7,1.7,0.1,2.4c-16,18.8-48.5,12.2-54.4-12.4
			c-1.4-5.7-1.1-11.4,0.7-17.2c4.9-15.2,18.7-23,34.3-22c5.8,0.4,12,1.2,18.6,2.5c0.2,0,0.3,0.2,0.3,0.4c0,0,0,0,0,0l-2.8,13.1
			c-0.1,0.4-0.3,0.6-0.7,0.6h-2.1c-0.3,0-0.5-0.2-0.6-0.5C321.6,1823.6,321.3,1821.6,319.4,1819.4z"/>
	</g>
	<g>
		<path d="M364.5,1810.5c16.1-1.9,31.6,4.8,35.7,21.6c4.8,19.2-8.2,37.8-28,40.2c-16.1,1.9-31.6-4.8-35.8-21.6
			C331.7,1831.4,344.7,1812.8,364.5,1810.5z M369.9,1868.2c10.8-0.6,18.9-13.1,18.1-28c0,0,0,0,0,0c-0.8-14.9-10.2-26.4-21-25.8
			s-18.9,13.1-18.1,28c0,0,0,0,0,0C349.6,1857.2,359,1868.7,369.9,1868.2z"/>
	</g>
	<g>
		<path d="M504,1865.7c3.2-2.6,2.9-7.6,0.9-10.6c-1.3-2.1-3.1-3.8-5.2-5.1c-9.9-6.1-22.3-11.2-20.5-25.5
			c1.3-10.2,11.2-14.3,20.9-14.1c4.4,0.1,9.6,0.6,15.6,1.6c0.4,0.1,0.6,0.3,0.5,0.8l-3,13.8c-0.1,0.3-0.3,0.5-0.6,0.5h-2.1
			c-0.3,0-0.6-0.3-0.6-0.6c-0.2-3.3-0.7-6.2-2.8-8.6c-2.4-2.9-7.4-3.5-10.7-2.7c-7.6,1.7-8.7,9.2-4,14.4c1.3,1.4,2.7,2.6,4.4,3.5
			c10.8,6.2,22.5,11.5,19.6,26.2c-2.5,12.8-17.6,15.1-28.5,12.6c-5.3-1.2-11.4-3.9-10.1-10.6c0.1-0.7,0.9-3.1,2.2-7.3
			c0.1-0.4,0.4-0.6,0.9-0.6h2.1c0.4,0,0.6,0.2,0.6,0.5c0.2,1.3,0.2,3,0.4,3.7c2,8.3,7.6,11.7,16.6,10
			C501.5,1867.4,502.6,1866.8,504,1865.7z"/>
	</g>
	<g>
		<path d="M752.6,1819.4c-3.1-3.7-9.7-4.9-14.1-4.6c-10.2,0.8-16.4,6.3-18.7,16.7c-3.2,14.5,3,29.1,18.3,32.6
			c7.9,1.8,15.5-0.1,22.2-4.8c0.7-0.5,1.3-0.4,1.8,0.3c0.6,0.9,0.6,1.7,0.1,2.4c-16,18.8-48.5,12.2-54.4-12.4
			c-1.4-5.7-1.1-11.5,0.7-17.2c4.9-15.2,18.7-23,34.3-22c5.8,0.4,12,1.2,18.6,2.5c0.2,0,0.3,0.2,0.3,0.4c0,0,0,0,0,0l-2.9,13.1
			c-0.1,0.4-0.3,0.6-0.7,0.6h-2.1c-0.3,0-0.5-0.2-0.6-0.5C754.8,1823.6,754.4,1821.6,752.6,1819.4z"/>
	</g>
	<g>
		<path d="M887.4,1810.5c16.1-1.9,31.6,4.8,35.8,21.6c4.8,19.2-8.2,37.8-28,40.2c-16.1,1.9-31.6-4.8-35.8-21.6
			C854.7,1831.4,867.7,1812.8,887.4,1810.5z M892.8,1868.2c10.8-0.6,18.9-13.1,18.1-28c0,0,0,0,0,0c-0.8-14.9-10.2-26.4-21-25.8
			s-18.9,13.1-18.1,28v0C872.6,1857.2,882,1868.7,892.8,1868.2z"/>
	</g>
	<g>
		<path d="M1062.5,1857.4c0.2,0.2,0.4,0.2,0.6,0c0,0,0,0,0.1-0.1c3.5-4.7,5.8-10,6.9-15.8c0.8-4.2,0.4-8.1-4.8-8.6
			c-0.4,0-0.7-0.3-0.7-0.7v-1.6c0-0.4,0.2-0.5,0.6-0.5h12.7c0.5,0,0.8,0.4,0.8,0.8c0,0.1,0,0.2-0.1,0.3c-0.5,1.2-2.1,5.9-4.8,14.3
			c-1.7,5.1-4.2,10.1-7.6,14.9c-0.2,0.3-0.2,0.7,0.1,1c4.4,4.9,9,8.8,13.6,11.8c0.2,0.1,0.2,0.3,0.2,0.5l-0.3,1.6
			c-0.1,0.4-0.4,0.6-0.8,0.5c-7-0.9-13.3-4.1-19.3-8c-0.3-0.2-0.6-0.2-0.9,0c-8.7,5.3-17.8,6-27.2,2.2c-4.5-1.8-7.3-4.9-8.5-9.3
			c-2.4-9.4,5.3-15.7,12.1-20.3c0.3-0.2,0.3-0.4,0.2-0.8c-2.9-5.3-4.5-10.2-4.8-14.5c-0.5-8,4.9-13.3,12.7-14.7
			c4.4-0.8,11.4-0.3,15.2,2.8c3.6,3,4.7,6.7,3.3,11.1c-1.7,5.3-8.2,10.5-12.8,13.3c-0.4,0.2-0.5,0.7-0.3,1c0,0,0,0,0,0
			C1052.8,1845.7,1057.5,1851.8,1062.5,1857.4z M1042.9,1816.7c-2.7,5.3,0,12.8,3.1,17.7c0.2,0.3,0.6,0.4,1,0.2c0,0,0.1-0.1,0.1-0.1
			c3.9-3.9,5.5-8.6,4.8-14c-0.2-1.6-0.7-2.9-1.5-4C1048.5,1813.9,1044.5,1813.6,1042.9,1816.7z M1054.6,1864.3
			c-6.8-5.9-12.3-12.3-16.4-19.2c-0.2-0.3-0.6-0.4-1-0.2c-0.1,0-0.1,0.1-0.2,0.1c-5.9,6.3-4.4,18.2,4.1,21.2c4.4,1.6,8.9,1.2,13.3-1
			c0.3-0.1,0.4-0.5,0.3-0.7C1054.7,1864.4,1054.7,1864.4,1054.6,1864.3z"/>
	</g>
	<g>
		<path d="M1133.2,1865.7c3.2-2.6,2.9-7.6,0.9-10.6c-1.3-2.1-3.1-3.8-5.2-5.1c-9.9-6.1-22.3-11.2-20.5-25.5
			c1.3-10.2,11.2-14.3,20.9-14.1c4.4,0.1,9.6,0.6,15.6,1.6c0.4,0.1,0.6,0.3,0.5,0.8l-3,13.8c-0.1,0.3-0.3,0.5-0.6,0.5h-2.1
			c-0.3,0-0.6-0.3-0.6-0.6c-0.2-3.3-0.7-6.2-2.8-8.6c-2.4-2.9-7.3-3.5-10.7-2.7c-7.6,1.7-8.7,9.2-4,14.4c1.3,1.4,2.7,2.6,4.4,3.5
			c10.8,6.2,22.5,11.5,19.6,26.3c-2.5,12.8-17.6,15.1-28.5,12.5c-5.3-1.2-11.4-3.9-10.1-10.6c0.1-0.7,0.9-3.1,2.2-7.3
			c0.1-0.4,0.4-0.6,0.9-0.6h2.2c0.4,0,0.6,0.2,0.6,0.5c0.2,1.3,0.2,3,0.4,3.7c2,8.3,7.6,11.7,16.6,10
			C1130.7,1867.4,1131.8,1866.8,1133.2,1865.7z"/>
	</g>
	<g>
		<path d="M1397.5,1819.4c-3.1-3.7-9.7-4.9-14.1-4.6c-10.2,0.8-16.4,6.3-18.7,16.7c-3.2,14.5,3,29.1,18.4,32.6
			c7.9,1.8,15.5-0.1,22.2-4.8c0.7-0.5,1.3-0.4,1.8,0.3c0.6,0.9,0.6,1.7,0.1,2.4c-16,18.8-48.5,12.2-54.4-12.4
			c-1.4-5.7-1.1-11.5,0.7-17.2c4.9-15.2,18.7-23,34.3-22c5.8,0.4,12,1.2,18.6,2.5c0.2,0,0.3,0.2,0.3,0.4c0,0,0,0,0,0l-2.8,13.1
			c-0.1,0.4-0.3,0.6-0.7,0.6h-2.1c-0.3,0-0.5-0.2-0.6-0.5C1399.8,1823.6,1399.4,1821.6,1397.5,1819.4z"/>
	</g>
	<g>
		<path d="M1493.1,1865.7c3.2-2.6,2.9-7.6,0.9-10.6c-1.3-2.1-3.1-3.8-5.2-5.1c-9.9-6.1-22.3-11.2-20.5-25.5
			c1.3-10.2,11.2-14.3,20.9-14.1c4.4,0.1,9.6,0.6,15.6,1.6c0.4,0.1,0.6,0.3,0.5,0.8l-3,13.8c-0.1,0.3-0.3,0.5-0.6,0.5h-2.1
			c-0.3,0-0.6-0.3-0.6-0.6c-0.2-3.3-0.7-6.2-2.8-8.6c-2.4-2.9-7.4-3.5-10.7-2.7c-7.6,1.7-8.7,9.2-4,14.4c1.3,1.4,2.7,2.6,4.4,3.5
			c10.8,6.2,22.5,11.5,19.6,26.2c-2.5,12.8-17.6,15.1-28.5,12.5c-5.3-1.2-11.4-3.9-10.1-10.5c0.1-0.7,0.9-3.1,2.2-7.3
			c0.1-0.4,0.4-0.6,0.9-0.6h2.2c0.4,0,0.6,0.2,0.6,0.5c0.2,1.3,0.2,3,0.4,3.7c2,8.3,7.6,11.7,16.6,10
			C1490.5,1867.4,1491.6,1866.8,1493.1,1865.7z"/>
	</g>
	<g>
		<path d="M419.7,1827.4c-0.2-0.2-0.2-0.1-0.2,0.1c0,5.9,0,17.7,0,35.4c0,1.2-0.1,2.3-0.4,3.5c-0.1,0.3,0.1,0.6,0.4,0.6c0,0,0,0,0,0
			l7.1,1c0.3,0,0.5,0.3,0.4,0.6c0,0,0,0,0,0l-0.3,1.7c-0.1,0.5-0.4,0.8-1,0.8h-17.8c-0.1,0-0.1-0.1-0.1-0.2l0,0v-2.8
			c0-0.2,0.1-0.3,0.3-0.3c4.2-0.4,6.3-2.5,6.2-6.5c0-1.4,0-14.3,0-38.8c0-4.1-2.1-6.8-6.5-7.9c-0.3-0.1-0.6-0.3-0.6-0.7
			c-0.1-0.7-0.1-1.4,0.1-2c0.1-0.4,0.3-0.6,0.7-0.6h13.6c0.1,0,0.3,0.1,0.4,0.2c0.7,0.9,1.4,2.2,2,2.8
			c15.6,16.5,27.5,29.1,35.6,37.8c0.3,0.3,0.4,0.2,0.4-0.2c0-18.2,0-28.8,0.1-31.7c0.1-2.7-1.1-4.4-3.7-5.1c-0.9-0.3-2-0.5-3.2-0.7
			c-0.4-0.1-0.6-0.4-0.6-0.8l0.2-1.7c0.1-0.3,0.3-0.5,0.6-0.5h16.8c0.3,0,0.5,0.1,0.7,0.3c0.3,0.4,0.4,0.8,0.2,1.1
			c-0.2,0.3-0.4,0.5-0.5,0.6c-6.1,3.2-5.4,7.4-5.4,13.3c0,9.7,0,24.3,0,43.9c0,0.3-0.2,0.5-0.5,0.6c-1.1,0.2-2.2,0.1-3.3-0.1
			c-0.1,0-0.2-0.1-0.3-0.2L419.7,1827.4z"/>
	</g>
	<g>
		<path d="M555.4,1866.8l7.8,1.1c0.3,0,0.4,0.2,0.4,0.5l-0.3,1.8c-0.1,0.5-0.4,0.8-0.9,0.8h-24.7c-0.4,0-0.5-0.2-0.5-0.5v-2
			c0-0.4,0.3-0.7,0.6-0.7c4-0.6,5.4-2.9,5.3-6.8c-0.1-15.7-0.1-30.4,0-43.9c0-0.4-0.3-0.8-0.8-0.8c-2.8-0.1-5.5-0.1-8.1,0
			c-5.9,0.2-8.1,4.3-10.4,9.7c-0.1,0.3-0.4,0.5-0.7,0.7c-0.8,0.4-1.6,0.5-2.6,0.3c-0.4-0.1-0.6-0.3-0.5-0.7l2.4-14.7
			c0.1-0.4,0.3-0.6,0.7-0.6c2,0.2,3.9,0.5,6.2,0.5c19.2,0,33.6,0,43.2,0c1.9,0,3.8-0.2,5.9-0.6c0.2,0,0.5,0.1,0.5,0.3
			c0,0.1,0,0.1,0,0.2l-2.4,14.8c-0.1,0.4-0.4,0.7-0.8,0.7h-2.1c-0.3,0-0.6-0.3-0.7-0.6c-0.4-4.8-0.8-9.2-6.6-9.9
			c-2.2-0.3-5.5-0.3-9.9-0.1c-0.8,0-1.4,0.7-1.4,1.4v48.7C555.1,1866.7,555.2,1866.8,555.4,1866.8z"/>
	</g>
	<g>
		<path d="M683,1813.8l0.2-1.5c0.1-0.5,0.3-0.7,0.8-0.7h17.3c0.2,0,0.4,0.1,0.6,0.2c0.3,0.4,0.4,0.7,0.2,1.1
			c-0.2,0.3-0.3,0.5-0.5,0.6c-4.9,2.7-6,5.7-6,11.4c0,16.7-0.1,25.3-0.1,25.9c-0.1,17-15.6,23.7-30.4,21.4
			c-11.1-1.8-19.8-8.9-19.9-20.9c-0.1-15.4-0.1-26.4-0.1-33.3c0-2.4-3.5-3.1-5.7-3.9c-0.4-0.1-0.5-0.4-0.5-0.8v-1.2
			c0-0.4,0.3-0.8,0.8-0.8l0,0h20.2c0,0,0.1,0,0.1,0.1c0,0,0,0,0,0c-1.8,3.2-2.7,6.7-2.7,10.5c0,3,0,10.3,0,21.7
			c0,7.1,0.6,11.9,1.7,14.4c5.5,12.5,24.1,12,29.6-0.3c1-2.3,1.5-5.8,1.4-10.7c0-0.1,0-9.2,0-27.2c0-4.5-2.9-4.9-6.4-5.6
			C683.2,1814.4,683,1814.1,683,1813.8z"/>
	</g>
	<g>
		<path d="M799.8,1866.6c0,0.2,0.1,0.3,0.3,0.3l7.8,1.1c0.3,0,0.4,0.2,0.4,0.5l-0.3,1.8c-0.1,0.5-0.4,0.8-0.9,0.8h-24.7
			c-0.4,0-0.5-0.2-0.5-0.5v-2c0-0.4,0.3-0.7,0.6-0.7c4-0.6,5.4-2.9,5.3-6.8c-0.1-15.7-0.1-30.4,0.1-43.9c0-0.4-0.3-0.8-0.8-0.8
			c-2.8-0.1-5.5-0.1-8.1,0c-5.9,0.2-8.1,4.3-10.4,9.7c-0.1,0.3-0.4,0.5-0.7,0.7c-0.8,0.4-1.6,0.5-2.6,0.3c-0.4-0.1-0.6-0.3-0.5-0.7
			l2.4-14.7c0.1-0.4,0.3-0.6,0.7-0.6c2,0.2,3.9,0.5,6.2,0.5c19.2,0,33.6,0,43.2,0c1.9,0,3.8-0.2,5.9-0.6c0.2,0,0.5,0.1,0.5,0.3
			c0,0.1,0,0.1,0,0.2l-2.4,14.8c-0.1,0.4-0.4,0.7-0.8,0.7h-2.1c-0.3,0-0.6-0.3-0.6-0.6c-0.4-4.8-0.8-9.2-6.6-9.9
			c-2.2-0.3-5.5-0.3-9.9-0.1c-0.8,0-1.4,0.7-1.4,1.4L799.8,1866.6z"/>
	</g>
	<g>
		<path d="M845.5,1866.9l6.3,0.9c0.4,0.1,0.7,0.5,0.7,0.9l-0.2,1.3c-0.1,0.5-0.4,0.8-0.9,0.8l-23.8,0.4c-0.2,0-0.2-0.1-0.2-0.2v-3
			c0-0.1,0.1-0.3,0.2-0.3c4-0.5,6-2.6,5.9-6.5c0-0.1,0-14.3-0.1-42.5c0-3.1-2.3-3.7-5.4-4.4c-0.5-0.1-0.9-0.6-0.9-1.1v-0.7
			c0-0.5,0.4-1,1-1l19.7-0.5c0.4,0,0.5,0.2,0.3,0.5c-1.8,3.4-2.7,7-2.6,10.8c0,2.8,0,16.2,0,40.2c0,0.9-0.2,2.3-0.4,3.4
			C845,1866.7,845.1,1866.9,845.5,1866.9z"/>
	</g>
	<g>
		<path d="M942.6,1827.4c-0.2-0.2-0.2-0.1-0.2,0.1c0,5.9,0,17.7,0,35.4c0,1.2-0.1,2.3-0.4,3.5c-0.1,0.3,0.1,0.6,0.4,0.6c0,0,0,0,0,0
			l7.1,1c0.3,0,0.5,0.3,0.4,0.6c0,0,0,0,0,0l-0.3,1.7c-0.1,0.5-0.4,0.8-1,0.8h-17.8c-0.1,0-0.1-0.1-0.1-0.2l0,0v-2.8
			c0-0.2,0.1-0.3,0.3-0.3c4.2-0.4,6.3-2.5,6.2-6.5c0-1.4,0-14.3,0-38.8c0-4.1-2.1-6.8-6.5-7.9c-0.3-0.1-0.6-0.3-0.6-0.7
			c-0.1-0.7-0.1-1.4,0.1-2c0.1-0.4,0.3-0.6,0.7-0.6h13.5c0.1,0,0.3,0.1,0.4,0.2c0.7,0.9,1.4,2.2,2,2.8
			c15.6,16.5,27.5,29.1,35.6,37.8c0.3,0.3,0.4,0.2,0.4-0.2c0-18.2,0-28.8,0.1-31.7c0.1-2.7-1.1-4.4-3.7-5.1c-0.9-0.3-2-0.5-3.2-0.7
			c-0.4-0.1-0.6-0.4-0.6-0.8l0.2-1.7c0.1-0.3,0.3-0.5,0.6-0.5h16.8c0.3,0,0.5,0.1,0.7,0.3c0.3,0.4,0.4,0.8,0.2,1.1
			c-0.2,0.3-0.4,0.5-0.5,0.6c-6,3.2-5.4,7.4-5.4,13.3c0,9.7,0,24.3,0,43.9c0,0.3-0.2,0.5-0.5,0.6c-1.1,0.2-2.2,0.2-3.3,0
			c-0.1,0-0.2-0.1-0.3-0.2L942.6,1827.4z"/>
	</g>
	<g>
		<path d="M1171.7,1837.8c0,0.4,0.2,0.6,0.6,0.6h13.8c0.3,0,0.5-0.2,0.6-0.5l0.8-4.6c0-0.1,0.1-0.2,0.2-0.2l3.2-0.3
			c0.2,0,0.2,0.1,0.2,0.2v16.3c0,0.4-0.2,0.5-0.5,0.5h-3.6c-0.4,0-0.6-0.2-0.6-0.5v-5.9c0-0.2-0.2-0.4-0.4-0.4h-12.8
			c-0.9,0-1.6,0.7-1.7,1.6v21.7c0,0.1,0.1,0.2,0.2,0.2l0,0c7,0.1,12,0.1,15.1-0.1c5.8-0.4,7.7-5.8,9.7-10c0.1-0.3,0.4-0.5,0.7-0.5
			h2.4c0.5,0,0.7,0.2,0.6,0.7l-3.1,14.1c-0.1,0.4-0.3,0.5-0.7,0.5h-42.8c-0.1,0-0.2-0.1-0.2-0.2v0v-2.7c0-0.2,0.1-0.3,0.3-0.4
			c3.8-0.3,5.7-2.4,5.7-6.2c0-2.1,0-16.2,0-42.2c0-4-2.9-4.5-6.3-5.2c-0.5-0.1-0.7-0.4-0.6-0.9l0.2-1.2c0-0.3,0.3-0.6,0.7-0.6
			c18.6,0,31.3,0,38.2,0c2.1,0,4.2-0.2,6.3-0.6c0.2,0,0.4,0.1,0.4,0.3c0,0,0,0.1,0,0.1l-2.3,14.4c-0.1,0.7-0.5,1.1-1.2,1.1h-1.5
			c-0.6,0-0.9-0.3-0.9-0.9c0.1-6-1.8-9.2-5.7-9.4c-4.8-0.3-9.4-0.4-13.9-0.2c-0.7,0-1.3,0.6-1.3,1.3V1837.8z"/>
	</g>
	<g>
		<path d="M1292.2,1855c0.2,0.6,0.4,0.6,0.7,0c3.1-7.6,7.3-18,12.7-31.2c1.8-4.3,2.7-8-3-9.3c-0.3-0.1-0.5-0.3-0.5-0.6v-1.6
			c0-0.4,0.2-0.6,0.6-0.6h13.7c0.6,0,1.1,0.5,1.1,1.1c0,0.3-0.1,0.6-0.3,0.8c-2.2,2.3-4,4.9-5.2,7.9c-5.8,13.9-12.6,30.6-20.5,50.1
			c-0.1,0.3-0.3,0.4-0.7,0.3l-3.6-0.8c-0.4-0.1-0.6-0.3-0.7-0.6c-6.1-15.3-12.9-32.5-20.5-51.7c-0.7-1.9-2.2-3.3-4.4-4.3
			c-0.3-0.1-0.4-0.4-0.4-0.7v-1.5c0-0.3,0.2-0.5,0.5-0.5l17.7-0.5c0.1,0,0.1,0,0.1,0.1c-0.8,4.4-1.2,6.2,0.5,10.6
			C1286.2,1838.8,1290.3,1849.8,1292.2,1855z"/>
	</g>
	<g>
		<path d="M1338.5,1866.3c-0.1,0.4,0.1,0.6,0.5,0.7l6.3,0.9c0.4,0.1,0.7,0.5,0.7,0.9l-0.2,1.3c-0.1,0.5-0.4,0.8-0.9,0.8l-23.8,0.4
			c-0.2,0-0.2-0.1-0.2-0.2v-3c0-0.1,0.1-0.3,0.2-0.3c4-0.5,6-2.6,5.9-6.5c0-0.1,0-14.3-0.1-42.5c0-3.1-2.3-3.7-5.4-4.4
			c-0.5-0.1-0.9-0.6-0.9-1.1v-0.7c0-0.5,0.4-1,0.9-1l19.7-0.5c0.4,0,0.5,0.2,0.3,0.5c-1.8,3.4-2.7,7-2.6,10.8c0,2.8,0,16.2,0,40.2
			C1338.9,1863.7,1338.7,1865.2,1338.5,1866.3z"/>
	</g>
	<g>
		<path d="M1432.7,1838.4h13.8c0.3,0,0.5-0.2,0.6-0.5l0.8-4.6c0-0.1,0.1-0.2,0.2-0.2l3.2-0.3c0.2,0,0.2,0.1,0.2,0.2v16.3
			c0,0.4-0.2,0.5-0.5,0.5h-3.6c-0.4,0-0.5-0.2-0.5-0.5v-5.9c0-0.2-0.2-0.4-0.4-0.4l0,0h-12.8c-0.9,0-1.6,0.7-1.6,1.7v21.7
			c0,0.1,0.1,0.2,0.2,0.2c7,0.1,12,0.1,15.2-0.1c5.8-0.3,7.7-5.8,9.7-10c0.1-0.3,0.4-0.5,0.7-0.5h2.4c0.5,0,0.7,0.2,0.6,0.7
			l-3.1,14.1c-0.1,0.4-0.3,0.5-0.7,0.5h-42.8c-0.1,0-0.2-0.1-0.2-0.2v-2.7c0-0.2,0.1-0.3,0.3-0.4c3.8-0.3,5.7-2.4,5.7-6.2
			c0-2.1,0-16.2,0-42.3c0-4-2.9-4.5-6.3-5.2c-0.5-0.1-0.7-0.4-0.6-0.9l0.2-1.2c0.1-0.3,0.3-0.6,0.7-0.6c18.6,0,31.4,0,38.3,0
			c2.1,0,4.2-0.2,6.3-0.6c0.2,0,0.4,0.1,0.5,0.3c0,0,0,0.1,0,0.1l-2.4,14.4c-0.1,0.7-0.5,1.1-1.2,1.1h-1.5c-0.6,0-0.9-0.3-0.9-0.9
			c0.1-6-1.8-9.2-5.7-9.4c-4.8-0.3-9.4-0.4-13.9-0.2c-0.7,0-1.3,0.6-1.3,1.3v20.1C1432.1,1838.2,1432.3,1838.4,1432.7,1838.4z"/>
	</g>
	<g>
		<path d="M600.9,1866.9l6.8,1c0.4,0.1,0.6,0.4,0.6,0.8l-0.2,1.6c-0.1,0.5-0.4,0.8-1,0.8h-24.3c-0.1,0-0.2-0.1-0.2-0.2v-2.7
			c0-0.2,0.1-0.3,0.3-0.3c3.8-0.5,5.8-2.6,5.8-6.5c0-13.3,0-26.7,0-40c0-5.5-1.5-6-6.2-7c-0.4-0.1-0.6-0.3-0.6-0.7v-1.5
			c0-0.3,0.2-0.5,0.5-0.5c8.9,0,17.5-0.1,25.9,0c5.8,0,12.3,1.2,16.8,5.2c4.1,3.6,5.2,10.1,2.7,14.7c-2.1,4-5.2,7.1-9.1,9.3
			c-0.7,0.4-0.9,1.3-0.6,2c0,0,0,0,0,0.1c2.2,3.5,6.8,10.4,13.6,20.7c1.8,2.7,4.1,4.2,6.8,4.5c0.3,0,0.4,0.2,0.3,0.4l-0.3,2.4
			c0,0.3-0.3,0.5-0.6,0.5h-16.4c-0.3,0-0.6-0.2-0.7-0.5c-3-7.5-7.9-13.9-15-24.5c-0.2-0.3-0.5-0.4-0.8-0.5c-1.7,0-4.4-0.8-4.3,2.1
			c0.1,8,0,14.1-0.2,18.5C600.5,1866.7,600.6,1866.9,600.9,1866.9z M600.7,1817.7v22.4c0,0.7,0.6,1.3,1.3,1.3h0h3.5
			c5.7,0,10.4-4.9,10.4-11v-2.8c0-6.1-4.6-11.1-10.4-11.1l0,0H602C601.3,1816.5,600.7,1817,600.7,1817.7L600.7,1817.7z"/>
	</g>
	<g>
		<path d="M1224.9,1866.4c0,0.3,0.1,0.5,0.4,0.6l6.8,1c0.4,0.1,0.6,0.4,0.6,0.8l-0.2,1.6c-0.1,0.5-0.4,0.8-1,0.8h-24.3
			c-0.1,0-0.2-0.1-0.2-0.2v-2.7c0-0.2,0.1-0.3,0.3-0.3c3.8-0.5,5.8-2.6,5.8-6.5c0-13.3,0-26.7,0-40c0-5.5-1.5-6-6.2-7
			c-0.4-0.1-0.6-0.3-0.6-0.7v-1.5c0-0.3,0.2-0.5,0.5-0.5c8.9-0.1,17.5-0.1,25.9,0c5.8,0,12.3,1.2,16.8,5.2c4.1,3.6,5.2,10,2.7,14.7
			c-2.1,4-5.1,7.1-9.1,9.3c-0.7,0.4-0.9,1.3-0.6,2c0,0,0,0,0,0.1c2.2,3.5,6.8,10.4,13.6,20.7c1.8,2.7,4.1,4.2,6.8,4.5
			c0.3,0,0.4,0.2,0.3,0.4l-0.3,2.4c0,0.3-0.3,0.5-0.6,0.5l-16.4,0c-0.3,0-0.6-0.2-0.7-0.5c-3-7.5-7.9-13.9-15.1-24.5
			c-0.2-0.3-0.5-0.4-0.8-0.5c-1.7,0-4.4-0.8-4.3,2.1C1225.2,1855.9,1225.2,1862,1224.9,1866.4z M1225.2,1817.6l-0.1,22.7
			c0,0.6,0.5,1.1,1.1,1.1c0,0,0,0,0,0l3.7,0c5.6,0,10.2-4.8,10.3-10.7l0-3.4c0-5.9-4.5-10.8-10.2-10.8c0,0,0,0,0,0l-3.7,0
			C1225.7,1816.5,1225.2,1817,1225.2,1817.6z"/>
	</g>
</g>
</svg>
